<svg version="1.1" xmlns="http://www.w3.org/2000/svg" xmlns:xlink="http://www.w3.org/1999/xlink" width="1em" height="1em" viewBox="0,0,256,256"><g fill="#faebeb" fill-rule="nonzero" stroke="none" stroke-width="1" stroke-linecap="butt" stroke-linejoin="miter" stroke-miterlimit="10" stroke-dasharray="" stroke-dashoffset="0" font-family="none" font-weight="none" font-size="none" text-anchor="none" style="mix-blend-mode: normal"><g transform="scale(5.12,5.12)"><path d="M25,42c-9.4,0 -17,-7.6 -17,-17c0,-9.4 7.6,-17 17,-17c9.4,0 17,7.6 17,17c0,9.4 -7.6,17 -17,17M25,10c-8.3,0 -15,6.7 -15,15c0,8.3 6.7,15 15,15c8.3,0 15,-6.7 15,-15c0,-8.3 -6.7,-15 -15,-15"></path><path d="M33.3,26.7l-8.3,-8.3l-8.3,8.3l-1.4,-1.4l9.7,-9.7l9.7,9.7z"></path><path d="M24,17h2v17h-2z"></path></g></g></svg>